<svg width="32" height="29" viewBox="0 0 32 29" fill="none" xmlns="http://www.w3.org/2000/svg">
<g id="External link">
<g id="Vector 19">
<path d="M25.5 1.31348C26.906 3.82137 28.1658 4.99998 31 6.81348C28.8567 6.26017 27.6531 6.26306 25.5 6.92217C26.1375 5.1048 26.1126 3.86283 25.5 1.31348Z" fill="#FFBB25" fill-opacity="0.5"/>
<path d="M16.5 4.31348C11.5357 5.80535 8.44508 5.72989 2.5 4.31348C5.26462 12.0888 5.10602 17.0752 2.5 26.8135C11.4821 25.5182 16.5179 25.3653 25.5 26.8135C24.2544 22.4772 24.1555 20.1587 25.5 16.3135M16.5 16.3135C20.5773 13.2975 22.6646 11.3764 25.5 6.92217M25.5 6.92217C26.1375 5.1048 26.1126 3.86283 25.5 1.31348C26.906 3.82137 28.1658 4.99998 31 6.81348C28.8567 6.26017 27.6531 6.26306 25.5 6.92217Z" stroke="#D8D2C3" stroke-width="2"/>
</g>
</g>
</svg>
