<svg width="25" height="14" viewBox="0 0 25 14" fill="none" xmlns="http://www.w3.org/2000/svg">
<path id="Vector" d="M12.4999 8.03937C8.62469 8.03937 5.90356 6.11059 4.1209 4.12985C3.22898 3.13882 2.58265 2.14496 2.15983 1.3988C1.9489 1.02657 1.7949 0.718278 1.69484 0.506028C1.64483 0.399954 1.60839 0.318061 1.58513 0.264388C1.5735 0.237559 1.56517 0.217798 1.5601 0.205606C1.55757 0.19951 1.55585 0.195307 1.55493 0.19308C1.55448 0.191958 1.55422 0.191322 1.55417 0.191188C1.55409 0.191003 1.55414 0.191137 1.55417 0.191188C1.55422 0.191322 1.55448 0.191958 1.55493 0.19308C1.55504 0.193348 1.55461 0.192309 0.777158 0.503282C-0.000296313 0.814255 -0.000152468 0.814623 4.45036e-06 0.815008C-0.000134716 0.814657 7.39499e-05 0.815193 4.45036e-06 0.815008C0.000283118 0.815695 0.000993021 0.81747 0.00137619 0.818425C0.00214253 0.820317 0.00311786 0.822729 0.00430304 0.825626C0.00667355 0.831437 0.00988393 0.839258 0.0139412 0.849004C0.0220551 0.868498 0.0335593 0.895762 0.0485072 0.930243C0.0783979 0.999224 0.122094 1.09724 0.18003 1.22013C0.29584 1.46579 0.468922 1.81168 0.702821 2.22446C1.16967 3.04832 1.88401 4.14782 2.87611 5.25015C4.86149 7.45613 8.00176 9.71406 12.4999 9.71406V8.03937ZM24.2228 0.503282C23.4454 0.192293 23.4454 0.192008 23.4456 0.19174C23.4456 0.19169 23.4456 0.191824 23.4456 0.19174C23.4445 0.193984 23.4424 0.19951 23.4399 0.205606C23.4348 0.217781 23.4265 0.237543 23.4147 0.264388C23.3916 0.318061 23.3551 0.399954 23.305 0.506011C23.2051 0.718278 23.051 1.02655 22.8402 1.3988C22.4173 2.14496 21.7709 3.13882 20.8789 4.12985C19.0964 6.11059 16.3752 8.03937 12.4999 8.03937V9.71406C16.9982 9.71406 20.1384 7.45613 22.1237 5.25015C23.116 4.14782 23.8302 3.04832 24.2971 2.22446C24.5311 1.8117 24.7041 1.46579 24.82 1.22013C24.8779 1.09724 24.9215 0.999241 24.9514 0.93026C24.9663 0.895762 24.9779 0.868498 24.9859 0.849004C24.9901 0.839258 24.9933 0.831437 24.9956 0.825626C24.9968 0.822729 24.9978 0.820317 24.9985 0.818425C24.999 0.81747 24.9993 0.816649 24.9995 0.815963C24.9993 0.81613 24.9997 0.815611 24.9995 0.815963C24.9997 0.815561 25.0002 0.814271 24.2228 0.503282ZM13.3373 13.0634L13.3373 8.87672H11.6626L11.6626 13.0634H13.3373ZM2.20659 10.3062L5.55596 6.95677L4.37179 5.7726L1.02241 9.12197L2.20659 10.3062ZM19.4439 6.95677L22.7933 10.3062L23.9776 9.12197L20.6282 5.7726L19.4439 6.95677Z" fill="#D8D2C3"/>
</svg>
