<svg width="25" height="19" viewBox="0 0 25 19" fill="none" xmlns="http://www.w3.org/2000/svg">
<path id="Vector" d="M0.833335 9.16668L0.0596021 8.8572C-0.0198674 9.05587 -0.0198674 9.2775 0.0596021 9.47617L0.833335 9.16668ZM24.1667 9.16668L24.9404 9.47618C25.0199 9.2775 25.0199 9.05587 24.9404 8.85718L24.1667 9.16668ZM12.5 16.6667C8.6433 16.6667 5.93519 14.7472 4.16107 12.7759C3.27342 11.7896 2.63019 10.8005 2.20939 10.0579C1.99947 9.68747 1.8462 9.38065 1.74662 9.16942C1.69685 9.06385 1.66058 8.98235 1.63744 8.92893C1.62586 8.90223 1.61758 8.88256 1.61253 8.87043C1.61001 8.86436 1.60829 8.86018 1.60739 8.85797C1.60693 8.85685 1.60668 8.85622 1.60662 8.85608C1.60655 8.8559 1.6066 8.85602 1.60662 8.85608C1.60668 8.85622 1.60693 8.85685 1.60739 8.85797C1.60749 8.85823 1.60707 8.8572 0.833335 9.16668C0.0596021 9.47617 0.0594459 9.47578 0.0596021 9.47617C0.0596713 9.47635 0.0601401 9.47752 0.0602786 9.47787C0.0605559 9.47855 0.0608853 9.47937 0.0612666 9.48032C0.0620293 9.4822 0.0629999 9.4846 0.0641794 9.48748C0.0665386 9.49327 0.0697336 9.50105 0.0737715 9.51075C0.0818465 9.53015 0.0932957 9.55728 0.108172 9.5916C0.13792 9.66025 0.181407 9.7578 0.239065 9.8801C0.354321 10.1246 0.526574 10.4688 0.759353 10.8796C1.22397 11.6995 1.93489 12.7938 2.92224 13.8909C4.89811 16.0862 8.02335 18.3334 12.5 18.3334V16.6667ZM0.833335 9.16668C1.60707 9.47617 1.60695 9.47647 1.60684 9.47673C1.60688 9.47663 1.60683 9.47678 1.60684 9.47673C1.60775 9.47452 1.61001 9.469 1.61253 9.46293C1.61758 9.4508 1.62586 9.43113 1.63744 9.40443C1.66058 9.35102 1.69685 9.26952 1.74662 9.16395C1.8462 8.95272 1.99947 8.6459 2.20939 8.27545C2.63019 7.53286 3.27342 6.54376 4.16107 5.55748C5.93519 3.58622 8.6433 1.66667 12.5 1.66667V0C8.02335 0 4.89811 2.24712 2.92224 4.44254C1.93489 5.53959 1.22397 6.63383 0.759353 7.45375C0.526574 7.86455 0.354321 8.20878 0.239065 8.45326C0.181407 8.57556 0.13792 8.67311 0.108172 8.74176C0.0932957 8.77608 0.0818465 8.80321 0.0737715 8.82261C0.0697336 8.83231 0.0665386 8.8401 0.0641794 8.84588C0.0629999 8.84876 0.0620293 8.85117 0.0612666 8.85305C0.0608853 8.854 0.0605559 8.85482 0.0602786 8.8555C0.0603478 8.85532 0.0601401 8.85585 0.0602786 8.8555C0.0601224 8.85588 0.0596021 8.8572 0.833335 9.16668ZM12.5 1.66667C16.3567 1.66667 19.0649 3.58622 20.8389 5.55748C21.7265 6.54376 22.3699 7.53286 22.7907 8.27545C23.0005 8.64591 23.1539 8.95272 23.2534 9.16397C23.3032 9.26952 23.3395 9.35102 23.3625 9.40443C23.3742 9.43115 23.3825 9.45082 23.3875 9.46293C23.39 9.469 23.3917 9.47318 23.3927 9.47542C23.393 9.47652 23.3934 9.47715 23.3934 9.47728C23.3932 9.47702 23.393 9.47618 24.1667 9.16668C24.9404 8.85718 24.9405 8.85758 24.9404 8.85718C24.9402 8.85702 24.9399 8.85585 24.9397 8.8555C24.9395 8.85482 24.9392 8.854 24.9387 8.85305C24.938 8.85117 24.937 8.84876 24.9359 8.84588C24.9335 8.8401 24.9304 8.83231 24.9262 8.82261C24.9182 8.80321 24.9067 8.77608 24.8919 8.74175C24.862 8.6731 24.8187 8.57556 24.761 8.45326C24.6457 8.20878 24.4735 7.86453 24.2407 7.45375C23.776 6.63383 23.0652 5.53959 22.0777 4.44254C20.1019 2.24712 16.9767 0 12.5 0V1.66667ZM24.1667 9.16668C23.393 8.85718 23.393 8.8569 23.3932 8.85663C23.3932 8.85672 23.3932 8.85658 23.3932 8.85663C23.3922 8.85887 23.39 8.86436 23.3875 8.87043C23.3825 8.88255 23.3742 8.90221 23.3625 8.92893C23.3395 8.98235 23.3032 9.06385 23.2534 9.1694C23.1539 9.38065 23.0005 9.68745 22.7907 10.0579C22.3699 10.8005 21.7265 11.7896 20.8389 12.7759C19.0649 14.7472 16.3567 16.6667 12.5 16.6667V18.3334C16.9767 18.3334 20.1019 16.0862 22.0777 13.8909C23.0652 12.7938 23.776 11.6995 24.2407 10.8796C24.4735 10.4688 24.6457 10.1246 24.761 9.8801C24.8187 9.7578 24.862 9.66027 24.8919 9.59162C24.9067 9.55728 24.9182 9.53015 24.9262 9.51075C24.9304 9.50105 24.9335 9.49327 24.9359 9.48748C24.937 9.4846 24.938 9.4822 24.9387 9.48032C24.9392 9.47937 24.9395 9.47855 24.9397 9.47787C24.9395 9.47803 24.9399 9.47752 24.9397 9.47787C24.9399 9.47747 24.9404 9.47618 24.1667 9.16668ZM12.5 11.6667C11.1193 11.6667 10 10.5474 10 9.16668H8.33335C8.33335 11.4679 10.1988 13.3334 12.5 13.3334V11.6667ZM15 9.16668C15 10.5474 13.8807 11.6667 12.5 11.6667V13.3334C14.8012 13.3334 16.6667 11.4679 16.6667 9.16668H15ZM12.5 6.66668C13.8807 6.66668 15 7.78596 15 9.16668H16.6667C16.6667 6.86549 14.8012 5.00001 12.5 5.00001V6.66668ZM12.5 5.00001C10.1988 5.00001 8.33335 6.86549 8.33335 9.16668H10C10 7.78596 11.1193 6.66668 12.5 6.66668V5.00001Z" fill="#FFBB25"/>
</svg>
