<svg width="208" height="40" viewBox="0 0 208 40" fill="none" xmlns="http://www.w3.org/2000/svg">
<g id="Fake text">
<g id="Vector 20">
<path d="M8 0.563416C5.92152 1.75821 4.48577 1.93537 1 0.563416C3.81301 2.44804 4.65396 3.87515 5 7.06342C5.24558 2.57746 6.20626 1.79329 8 0.563416Z" fill="#FFBB25" fill-opacity="0.5"/>
<path d="M17.3802 27.5734C16.6291 27.0827 16.078 26.1095 15.5 24.0634C15.8763 25.9259 15.3939 27.2537 13.5 30.0634C15.5199 28.4323 16.6401 27.7557 17.3802 27.5734Z" fill="#FFBB25" fill-opacity="0.5"/>
<path d="M38.9688 7.11973C38.5256 7.89863 37.6932 8.48388 36 9.56342C37.2991 10.0048 37.9166 10.56 38.4506 11.4744C37.8886 10.16 37.9044 9.05227 38.9688 7.11973Z" fill="#FFBB25" fill-opacity="0.5"/>
<path d="M35 20.5634C34.8474 22.0125 34.3402 22.7693 33 24.0634C35.4879 23.2307 36.7927 23.2508 39 24.0634C37.2712 23.4059 36.3624 22.7779 35 20.5634Z" fill="#FFBB25" fill-opacity="0.5"/>
<path d="M56.5 20.5634C57.8957 19.436 58.3954 18.5146 58.5 16.0634C58.975 18.1201 59.4278 19.0842 60.5 20.5634C58.9377 19.5172 58.0623 19.7311 56.5 20.5634Z" fill="#FFBB25" fill-opacity="0.5"/>
<path d="M71.5 16.0634C68.9349 15.1392 68.1192 14.3491 67.5 12.5634C67.8954 14.5161 68.0219 15.6104 67.5 17.5634C69.0447 15.9828 69.9173 15.5781 71.5 16.0634Z" fill="#FFBB25" fill-opacity="0.5"/>
<path d="M65.5 2.06342C65.2039 4.11032 64.3603 4.58062 62.5 5.06342C64.3959 4.97355 65.4502 5.20408 66.2992 5.82601C65.6846 4.99968 65.4004 3.99859 65.5 2.06342Z" fill="#FFBB25" fill-opacity="0.5"/>
<path d="M86.243 1.25127C85.271 1.6968 84.1644 1.95058 82 2.06342C83.7682 2.46564 84.4606 2.94763 84.8749 4.52758C84.9154 2.90482 85.2175 1.98987 86.243 1.25127Z" fill="#FFBB25" fill-opacity="0.5"/>
<path d="M97 2.06342C98.4911 2.92762 98.5759 3.66699 98.5 5.06342C99.1849 3.90498 99.4514 3.25881 101.5 2.06342C99.8476 2.37721 98.9075 2.51221 97 2.06342Z" fill="#FFBB25" fill-opacity="0.5"/>
<path d="M112.5 4.52758C114.381 5.74096 115.144 5.3105 116.5 4.52758C115.003 7.03424 114.787 8.60516 115 11.5634C114.723 9.33384 114.396 8.0785 112.5 5.7955V4.52758Z" fill="#FFBB25" fill-opacity="0.5"/>
<path d="M141.711 4.88568C141.451 5.41934 140.956 5.91502 140 6.56342C141.47 7.0744 142.127 7.49704 142.889 8.42496C141.872 7.14439 141.541 6.20201 141.711 4.88568Z" fill="#FFBB25" fill-opacity="0.5"/>
<path d="M146 13.0634C145.429 14.4525 144.708 15.0869 143 16.0634C144.757 15.661 145.743 15.5583 147.5 16.0634C145.878 15.0806 145.711 14.3935 146 13.0634Z" fill="#FFBB25" fill-opacity="0.5"/>
<path d="M143 21.5634C141.754 22.9232 141.406 23.7676 141.982 25.5086C143.585 24.7876 144.716 24.635 145.898 25.4874C144.095 24.1359 143.569 23.2345 143 21.5634Z" fill="#FFBB25" fill-opacity="0.5"/>
<path d="M151.5 13.0634C152.251 11.0773 152.26 9.76767 151.5 7.06342C153.039 9.53409 154.23 9.88763 156.5 10.0634C154.065 10.1022 152.998 10.8219 151.5 13.0634Z" fill="#FFBB25" fill-opacity="0.5"/>
<path d="M187.5 14.5634C185.265 13.8158 184.644 12.969 184.5 10.7955C183.95 12.3644 183.15 13.2039 180 14.5634C183.364 14.0901 185.122 13.9621 187.5 14.5634Z" fill="#FFBB25" fill-opacity="0.5"/>
<path d="M170 33.0634C167.974 31.9868 167.752 30.961 167.5 29.0634C167.245 31.6724 166.477 32.9529 164.5 35.0634C166.394 33.2297 167.529 32.5069 170 33.0634Z" fill="#FFBB25" fill-opacity="0.5"/>
<path d="M205 17.5634C205.302 19.6044 205.759 20.3715 207 21.0634C204.69 20.77 203.369 21.3179 201 22.5634C203.073 21.1277 204.008 20.0927 205 17.5634Z" fill="#FFBB25" fill-opacity="0.5"/>
<path d="M197 25.5634C197.798 27.8494 198.782 28.4765 200.914 29.0408C197.974 28.2722 196.25 28.1303 193 29.0634C195.222 27.9399 196.213 27.2151 197 25.5634Z" fill="#FFBB25" fill-opacity="0.5"/>
<path d="M45 5.06342C46.6331 6.7054 48.5289 10.0251 49 12.5634C49.1958 9.95252 49.7748 8.78807 51.5 7.06342C48.7485 7.71159 47.3479 7.13427 45 5.06342Z" fill="#FFBB25" fill-opacity="0.5"/>
<path d="M5 7.06342C5.24558 2.57746 6.20626 1.79329 8 0.563416C5.92152 1.75821 4.48577 1.93537 1 0.563416C3.81301 2.44804 4.65396 3.87515 5 7.06342ZM5 7.06342C4.60884 12.2802 4.71068 14.2886 5 17.5634M5 28.0634C6.10503 27.3272 6.03619 24.8184 5 17.5634M5 17.5634C8.89703 12.6579 11.2081 11.0122 15.5 9.56342C14.1696 19.4517 14.1993 22.5424 15.5 24.0634M15.5 24.0634C15.8763 25.9259 15.3939 27.2537 13.5 30.0634C15.5199 28.4323 16.6401 27.7557 17.3802 27.5734M15.5 24.0634C16.078 26.1095 16.6291 27.0827 17.3802 27.5734M36 9.56342C32.6815 8.88539 30.9248 8.38722 26 9.56342C24.7341 13.1746 24.8507 15.2019 26 18.8134M36 9.56342C31.7012 12.8086 29.6396 14.9532 26 18.8134M36 9.56342C37.6932 8.48388 38.5256 7.89863 38.9688 7.11973M36 9.56342C37.2991 10.0048 37.9166 10.56 38.4506 11.4744M39 7.06342C38.9895 7.08227 38.9791 7.10104 38.9688 7.11973M26 18.8134C25 19.0634 25.9264 23.1994 26 28.0634C27.0256 27.9549 27.617 27.8799 33 24.0634M33 24.0634C34.3402 22.7693 34.8474 22.0125 35 20.5634C36.3624 22.7779 37.2712 23.4059 39 24.0634C36.7927 23.2508 35.4879 23.2307 33 24.0634ZM49 12.5634C48.5289 10.0251 46.6331 6.7054 45 5.06342C47.3479 7.13427 48.7485 7.71159 51.5 7.06342M49 12.5634C49.1958 9.95252 49.7748 8.78807 51.5 7.06342M49 12.5634C48.0357 24.5574 48.0994 30.3753 49 39.5634M51.5 7.06342C54.7467 6.29942 56.3973 6.1219 58.5 7.06342C57.6921 10.7094 57.5779 12.7001 58.5 16.0634M58.5 16.0634C58.3954 18.5146 57.8957 19.436 56.5 20.5634C58.0623 19.7311 58.9377 19.5172 60.5 20.5634C59.4278 19.0842 58.975 18.1201 58.5 16.0634ZM67.5 7.06342C67.6587 7.69702 67.6646 8.84714 67.5 12.5634M67.5 7.06342C73.3676 7.29934 75.9246 6.80043 79.5 5.06342C78.2246 9.35921 78.4535 11.7677 79.5 16.0634C76.627 15.2238 74.9528 14.9655 71.5 16.0634M67.5 7.06342C67.0979 6.54689 66.7243 6.13739 66.2992 5.82601M67.5 7.06342C67.0175 6.6285 66.6148 6.25029 66.2992 5.82601M67.5 30.0634C66.7984 24.6023 66.843 21.9026 67.5 17.5634M67.5 12.5634C68.1192 14.3491 68.9349 15.1392 71.5 16.0634M67.5 12.5634C67.8954 14.5161 68.0219 15.6104 67.5 17.5634M71.5 16.0634C69.9173 15.5781 69.0447 15.9828 67.5 17.5634M98.5 5.06342C94.9271 10.9343 92.6737 14.1814 92 20.5634C90.4073 14.2889 88.5394 10.9989 85.5 5.06342L84.8749 4.52758M98.5 5.06342C98.5759 3.66699 98.4911 2.92762 97 2.06342C98.9075 2.51221 99.8476 2.37721 101.5 2.06342C99.4514 3.25881 99.1849 3.90498 98.5 5.06342ZM84.8749 4.52758C84.4606 2.94763 83.7682 2.46564 82 2.06342C84.1644 1.95058 85.271 1.6968 86.243 1.25127M84.8749 4.52758C84.9154 2.90482 85.2175 1.98987 86.243 1.25127M84.8749 12.5634C90.6989 12.976 93.8892 12.6733 99.5 11.5634M104 20.5634C103.108 17.1105 103.091 14.1159 104 7.06342C107.454 6.17441 109.291 6.3413 112.5 7.06342V5.7955M115 11.5634C114.787 8.60516 115.003 7.03424 116.5 4.52758C115.144 5.3105 114.381 5.74096 112.5 4.52758V5.7955M115 11.5634C114.723 9.33384 114.396 8.0785 112.5 5.7955M115 11.5634C116.178 21.498 117.894 28.4453 115 33.0634M122 26.8134C120.951 24.7089 122.663 20.4854 129 8.56342M129 8.56342C130.366 12.4746 131.093 14.6838 130.75 19.3134M129 8.56342C132.957 6.74853 135.353 6.26765 140 6.56342M146 25.5634C145.966 25.5379 145.932 25.5126 145.898 25.4874M140 26.5108C137.469 26.9599 135.806 27.7808 132.5 30.0634C131.18 29.3229 131.019 25.7612 130.75 19.3134M140 26.5108L142 25.5634C141.994 25.5451 141.988 25.5268 141.982 25.5086M140 26.5108C140.741 26.1146 141.393 25.7733 141.982 25.5086M130.75 19.3134C135.353 16.7935 138.015 15.9385 143 16.0634M143 16.0634C144.708 15.0869 145.429 14.4525 146 13.0634C145.711 14.3935 145.878 15.0806 147.5 16.0634C145.743 15.5583 144.757 15.661 143 16.0634ZM140 6.56342C140.956 5.91502 141.451 5.41934 141.711 4.88568M140 6.56342C141.47 7.0744 142.127 7.49704 142.889 8.42496M143 8.56342C142.963 8.51603 142.925 8.46991 142.889 8.42496M156.5 10.0634C154.23 9.88763 153.039 9.53409 151.5 7.06342C152.26 9.76767 152.251 11.0773 151.5 13.0634C152.998 10.8219 154.065 10.1022 156.5 10.0634ZM156.5 10.0634C161.928 9.35285 164.493 9.07928 165.5 9.52758C163.836 15.2187 162.841 18.452 163.5 22.5634C161.448 21.2511 158.919 21.3972 153 22.5634M170 33.0634C175.327 31.4937 177.024 32.0374 180 33.0634C182.726 30.7879 183.935 29.4886 184.5 27.0634C181.313 22.6987 179.052 20.4878 173 17.5634C171.35 14.1709 171.362 11.9037 173 7.06342C179.886 6.5178 183.038 6.37394 184.5 7.06342C184.76 8.20526 184.869 8.89096 184.5 10.7955M170 33.0634C167.974 31.9868 167.752 30.961 167.5 29.0634C167.245 31.6724 166.477 32.9529 164.5 35.0634C166.394 33.2297 167.529 32.5069 170 33.0634ZM184.5 10.7955C184.644 12.969 185.265 13.8158 187.5 14.5634C185.122 13.9621 183.364 14.0901 180 14.5634C183.15 13.2039 183.95 12.3644 184.5 10.7955ZM197 0.563416C197.667 11.4425 199.148 19.3962 197 25.5634M197 25.5634C196.213 27.2151 195.222 27.9399 193 29.0634C196.25 28.1303 197.974 28.2722 200.914 29.0408M197 25.5634C197.798 27.8494 198.782 28.4765 200.914 29.0408M201 29.0634C200.971 29.0558 200.943 29.0483 200.914 29.0408M205 5.56342C205.501 11.5267 205.652 14.5408 205 17.5634M205 17.5634C205.302 19.6044 205.759 20.3715 207 21.0634C204.69 20.77 203.369 21.3179 201 22.5634C203.073 21.1277 204.008 20.0927 205 17.5634ZM17.3802 27.5734C18.1304 27.3886 18.4899 27.7118 19 28.0634C18.355 27.9889 17.8315 27.8682 17.3802 27.5734ZM38.9688 7.11973C37.9044 9.05227 37.8886 10.16 38.4506 11.4744M38.4506 11.4744C38.6355 11.791 38.8104 12.1506 39 12.5634C38.7831 12.1742 38.5972 11.8173 38.4506 11.4744ZM66.2992 5.82601C65.4502 5.20408 64.3959 4.97355 62.5 5.06342C64.3603 4.58062 65.2039 4.11032 65.5 2.06342C65.4004 3.99859 65.6846 4.99968 66.2992 5.82601ZM86.243 1.25127C86.5789 1.00928 86.9925 0.786229 87.5 0.563416C87.0566 0.831115 86.6623 1.05904 86.243 1.25127ZM141.711 4.88568C141.541 6.20201 141.872 7.14439 142.889 8.42496M141.711 4.88568C141.763 4.48604 141.861 4.05192 142 3.56342C141.97 4.07621 141.904 4.49131 141.711 4.88568ZM141.982 25.5086C141.406 23.7676 141.754 22.9232 143 21.5634C143.569 23.2345 144.095 24.1359 145.898 25.4874M141.982 25.5086C143.585 24.7876 144.716 24.635 145.898 25.4874" stroke="#D8D2C3"/>
</g>
</g>
</svg>
