<svg width="30" height="42" viewBox="0 0 30 42" fill="none" xmlns="http://www.w3.org/2000/svg">
<path d="M1.43848 40.2723C2.93848 41.2723 27.4385 41.2723 28.9385 40.2723C30.4385 39.2723 27.7492 36.6525 25.9385 35.3632L17.4385 29.2723L17.0339 25.5C16.5459 24.4373 16.6833 23.3259 17.4385 22.2723C15.4191 20.3112 16.5389 19.8782 20.4385 18.2268C20.5636 18.0572 20.6857 17.8906 20.805 17.7268C21.894 16.2314 22.7464 14.9663 23.4806 13.7015L15.5 18.2268L7.93848 13.7015C8.56644 14.9597 9.34447 16.2295 10.393 17.7268C14.506 19.357 16.1244 20.3456 13.4385 22.2723C14.419 23.4236 14.5831 24.5158 14.1411 25.5L13.4385 29.2723L4.43848 35.3632C2.62292 36.9104 -0.0615141 39.2723 1.43848 40.2723Z" fill="#FFBB25" fill-opacity="0.5"/>
<path d="M4.43848 35.3632C2.62292 36.9104 -0.0615141 39.2723 1.43848 40.2723C2.93848 41.2723 27.4385 41.2723 28.9385 40.2723C30.4385 39.2723 27.7492 36.6525 25.9385 35.3632M4.43848 35.3632C5.08155 32.4217 5.07778 32.2574 7.93848 29.2723C11.0271 28.4569 13.411 27.1259 14.1411 25.5M4.43848 35.3632L13.4385 29.2723L14.1411 25.5M25.9385 35.3632C25.0368 32.1648 25.0404 32.0335 22.4385 29.2723C19.4874 28.2776 17.692 26.9331 17.0339 25.5M25.9385 35.3632L17.4385 29.2723L17.0339 25.5M17.0339 25.5C16.5459 24.4373 16.6833 23.3259 17.4385 22.2723C15.4191 20.3112 16.5389 19.8782 20.4385 18.2268C20.5636 18.0572 20.6857 17.8906 20.805 17.7268C21.894 16.2314 22.7464 14.9663 23.4806 13.7015M14.1411 25.5C14.5831 24.5158 14.419 23.4236 13.4385 22.2723C16.1244 20.3456 14.506 19.357 10.393 17.7268C9.34447 16.2295 8.56644 14.9597 7.93848 13.7015M7.93848 13.7015C6.98232 11.7857 6.37407 9.89671 5.68848 7.27226C3.91278 5.67081 1.93849 3.77224 3.43848 2.77225C4.93848 1.77226 9.07737 1.27225 9.07737 1.27225C13.8504 1.07699 16.9385 0.772247 21.4385 1.27224C21.4385 1.27224 26.4385 1.77225 27.9385 2.77225C29.4385 3.77226 27.6382 6.40831 26.1885 7.77225C25.3016 10.1668 24.5066 11.9339 23.4806 13.7015M7.93848 13.7015L15.5 18.2268L23.4806 13.7015" stroke="#D8D2C3"/>
</svg>
