<svg width="30" height="42" viewBox="0 0 30 42" fill="none" xmlns="http://www.w3.org/2000/svg">
<path d="M20.5 17.9545C23.3635 14.0722 24.6589 11.7957 26.25 7.50001L5.75001 7.00002C6.88586 11.3481 7.8094 13.6773 10.4546 17.4546C14.5675 19.0848 16.1859 20.0734 13.5 22H17.5C15.4806 20.0389 16.6004 19.606 20.5 17.9545Z" fill="#FFBB25" fill-opacity="0.5"/>
<path d="M17.5 22C15.4806 20.0389 16.6004 19.606 20.5 17.9545C23.3635 14.0722 24.6589 11.7957 26.25 7.50001M17.5 22C15.7263 24.4746 17.3607 27.2679 22.5 29C25.1019 31.7613 25.0984 31.8926 26 35.0909C27.8107 36.3803 30.5 39 29 40C27.5 41 3 41 1.50001 40C9.35793e-06 39 2.68445 36.6381 4.50001 35.0909C5.14307 32.1494 5.1393 31.9852 8.00001 29C12.9583 27.6911 16.1004 25.0532 13.5 22M17.5 22H13.5M13.5 22C16.1859 20.0734 14.5675 19.0848 10.4546 17.4546C7.8094 13.6773 6.88586 11.3481 5.75001 7.00002M5.75001 7.00002C3.9743 5.39856 2.00001 3.5 3.50001 2.5C5 1.50001 9.13889 1 9.13889 1C13.912 0.804742 17 0.5 21.5 0.999995C21.5 0.999995 26.5 1.5 28 2.5C29.5 3.50001 27.6997 6.13607 26.25 7.50001M5.75001 7.00002L26.25 7.50001" stroke="#D8D2C3"/>
</svg>
