<svg width="28" height="28" viewBox="0 0 28 28" fill="none" xmlns="http://www.w3.org/2000/svg">
<g id="Logo">
<g id="Vector 4">
<path d="M3 17C8.77022 12.1674 9.78803 8.79487 13.3333 1.5C19.1672 3.5672 19.9594 3.01516 21.8333 5.83333C24.1606 9.33333 23 14.3333 21.8333 15.8333C25.1392 16.6914 25.7421 19.2455 26 21.5C25.1667 24.3333 25.5883 24.8101 21.8333 26.5L18.2783 16.0441C15.7862 16.1939 13.3279 16.3455 11.1359 16.4824C6.46281 16.7744 3 17 3 17Z" fill="#FFBB25" fill-opacity="0.2"/>
<path d="M13.3333 1.5C9.78803 8.79487 8.77022 12.1674 3 17C3 17 12.9164 16.354 21.8333 15.8333M13.3333 1.5C19.1672 3.5672 19.9594 3.01516 21.8333 5.83333C24.1606 9.33333 23 14.3333 21.8333 15.8333M13.3333 1.5L9.66667 26.5M13.3333 1.5L17.5833 14L21.8333 26.5C25.5883 24.8101 25.1667 24.3333 26 21.5C25.7421 19.2455 25.1392 16.6914 21.8333 15.8333" stroke="#AEAEAE" stroke-width="2"/>
</g>
</g>
</svg>
