<svg width="51" height="33" viewBox="0 0 51 33" fill="none" xmlns="http://www.w3.org/2000/svg">
<g id="Vector 11">
<path d="M39.9386 25.424C38.2358 25.8132 37.439 26.296 36.2632 27.5683V30.3253C37.4049 30.9038 38.1742 31.237 39.9386 31.857C41.4337 32.3518 42.2721 32.2506 43.7672 31.857C44.7434 31.444 45.1845 31.1507 45.4518 30.3253C45.7852 29.2487 45.868 28.6449 45.4518 27.5683C45.2967 26.8015 45.0456 26.3485 43.7672 25.424C43.1891 25.3212 42.7253 25.2354 42.2338 25.204C41.6099 25.1642 40.9415 25.212 39.9386 25.424Z" fill="#FFBB25" fill-opacity="0.5"/>
<path d="M36.2632 27.5683C37.439 26.296 38.2358 25.8132 39.9386 25.424C38.0994 23.6918 38.0333 21.4738 38.2338 19.5C39.7779 18.4919 39.9483 17.1186 40.7338 15.5C42.1338 16.2996 43.7984 18.7946 44.7338 20.6912C44.8009 24.1411 43.3673 24.7964 42.2338 25.204C42.7253 25.2354 43.1891 25.3212 43.7672 25.424C45.0456 26.3485 45.2967 26.8015 45.4518 27.5683C47.137 24.9841 50.64 23.1243 50.2338 19.5C50.2338 14.6491 41.0289 -0.395371 40.7338 1.10463C40.4386 2.60463 37.1187 9.71739 36.2632 11.5C33.7258 14.1009 30.4303 17.5251 30.2338 19.5C30.6264 23.7808 33.5474 25.6571 36.2632 27.5683Z" fill="#FFBB25" fill-opacity="0.5"/>
<path d="M36.2632 27.5683H0.733765V30.3253H36.2632M36.2632 27.5683C37.439 26.296 38.2358 25.8132 39.9386 25.424M36.2632 27.5683V30.3253M36.2632 27.5683C33.5474 25.6571 30.6264 23.7808 30.2338 19.5C30.4303 17.5251 33.7258 14.1009 36.2632 11.5C37.1187 9.71739 40.4386 2.60463 40.7338 1.10463C41.0289 -0.395371 50.2338 14.6491 50.2338 19.5C50.64 23.1243 47.137 24.9841 45.4518 27.5683M39.9386 25.424C38.0994 23.6918 38.0333 21.4738 38.2338 19.5C39.7779 18.4919 39.9483 17.1186 40.7338 15.5C42.1338 16.2996 43.7984 18.7946 44.7338 20.6912C44.8009 24.1411 43.3673 24.7964 42.2338 25.204M39.9386 25.424C40.9415 25.212 41.6099 25.1642 42.2338 25.204M45.4518 27.5683C45.2967 26.8015 45.0456 26.3485 43.7672 25.424C43.1891 25.3212 42.7253 25.2354 42.2338 25.204M45.4518 27.5683C45.868 28.6449 45.7852 29.2487 45.4518 30.3253C45.1845 31.1507 44.7434 31.444 43.7672 31.857C42.2721 32.2506 41.4337 32.3518 39.9386 31.857C38.1742 31.237 37.4049 30.9038 36.2632 30.3253" stroke="#FFBB25"/>
</g>
</svg>
