<svg width="326" height="175" viewBox="0 0 326 175" fill="none" xmlns="http://www.w3.org/2000/svg">
<path d="M187.383 1.19721C234.244 0.168255 260.245 2.46266 306.248 6.63285L321.525 9.63217C325.23 15.3464 325.681 18.664 324.253 24.7175C316.406 33.0909 310.93 34.9884 300.495 36.6354C291.551 36.1565 285.508 36.9328 285.164 27.7212C256.288 60.4654 245.643 103.791 225.494 144.513C231.234 144.215 233.482 144.489 235.41 145.962C240.379 148.156 242.197 149.598 243.23 152.677C245.167 156.842 245.36 159.894 245.543 165.47C243.942 169.13 240.193 170.887 230.777 173.729C226.021 174.417 221.116 173.921 209.625 171.965C170.594 162.499 146.172 158.346 93.7712 152.266C129.887 78.1054 149.809 25.3117 187.383 1.19721Z" fill="#FFBB25" fill-opacity="0.5"/>
<path fill-rule="evenodd" clip-rule="evenodd" d="M85.8955 63.7547C80.998 53.1314 72.8628 36.6411 72.8628 36.6411C55.195 20.6447 42.5074 13.4011 18.6944 1.21462C9.94838 3.22042 5.98891 5.22173 1.73526 11.3949C38.5462 29.3364 57.3052 40.7882 85.8955 63.7547ZM80.3595 63.2135C70.9787 62.3105 60.0489 61.315 60.0489 61.315C43.479 47.6954 32.8888 40.8951 5.82796 34.0278C1.90011 25.2962 1.19044 20.6274 1.5109 14.4841C33.2096 29.8185 50.8719 40.1787 80.3595 63.2135ZM80.3595 63.2135C80.8889 63.627 81.4221 64.0447 81.9593 64.4665C88.8566 70.1341 97.1959 78.4789 97.1959 78.4789L103.053 79.9603C103.053 79.9603 92.788 70.0486 85.8955 63.7547C84.1917 63.5848 82.3091 63.4011 80.3595 63.2135Z" fill="#FFBB25" fill-opacity="0.5"/>
<path d="M1.73526 11.3949C38.5462 29.3364 57.3052 40.7882 85.8955 63.7547M1.73526 11.3949C5.98891 5.22173 9.94838 3.22042 18.6944 1.21462C42.5074 13.4011 55.195 20.6447 72.8628 36.6411C72.8628 36.6411 80.998 53.1314 85.8955 63.7547M1.73526 11.3949C1.64003 12.4776 1.56224 13.4998 1.5109 14.4841M85.8955 63.7547C92.788 70.0486 103.053 79.9603 103.053 79.9603L97.1959 78.4789C97.1959 78.4789 88.8566 70.1341 81.9593 64.4665C81.4221 64.0447 80.8889 63.627 80.3595 63.2135M85.8955 63.7547C84.1917 63.5848 82.3091 63.4011 80.3595 63.2135M306.248 6.63285C260.245 2.46266 234.244 0.168252 187.383 1.19721C149.809 25.3117 129.887 78.1054 93.7712 152.266C146.172 158.346 170.594 162.499 209.625 171.965M306.248 6.63285L321.525 9.63217C325.23 15.3464 325.681 18.664 324.253 24.7175C316.406 33.0909 310.93 34.9884 300.495 36.6354M306.248 6.63285C304.632 8.89214 303.516 10.3223 300.86 13.369M209.625 171.965C221.116 173.921 226.021 174.417 230.777 173.729C240.193 170.887 243.942 169.13 245.543 165.47C245.36 159.894 245.167 156.842 243.23 152.677C242.197 149.598 240.379 148.156 235.41 145.962M209.625 171.965L225.494 144.513M300.495 36.6354C296.067 29.5669 295.256 26.1584 297.736 21.3828M300.495 36.6354C291.551 36.1565 285.508 36.9328 285.164 27.7212M297.736 21.3828C303.458 17.9041 306.903 17.2642 313.481 18.5357M297.736 21.3828L307.305 23.7174C312.575 23.6117 313.035 21.8785 313.481 18.5357M313.481 18.5357C308.817 15.3966 306.146 13.8787 300.86 13.369M285.164 27.7212C256.288 60.4654 245.643 103.791 225.494 144.513M285.164 27.7212C298.656 12.4208 288.388 23.0732 300.86 13.369M235.41 145.962C230.406 150.111 228.686 152.817 228.019 158.476C231.211 164.153 233.844 163.45 238.435 162.69M235.41 145.962C233.482 144.489 231.234 144.215 225.494 144.513M1.5109 14.4841C1.19044 20.6274 1.90011 25.2962 5.82796 34.0278C32.8888 40.8951 43.479 47.6954 60.0489 61.315C60.0489 61.315 70.9787 62.3105 80.3595 63.2135M1.5109 14.4841C33.2096 29.8185 50.8719 40.1787 80.3595 63.2135" stroke="#55534C"/>
</svg>
