<svg width="191" height="440" viewBox="0 0 191 440" fill="none" xmlns="http://www.w3.org/2000/svg">
<path opacity="0.3" d="M102.5 439.5C88.4094 426.717 92.4641 416.526 115.85 412C140.549 415.582 147.137 415.317 149.85 412C162.803 406.243 164.888 403.439 167.85 398.5C183.752 386.827 182.852 380.68 161.85 370.5C150.581 375.667 145.1 376.037 139.35 364.5C136.327 370.486 134.95 373.746 139.35 377.5C135.226 383.872 132.427 386.115 122.85 377.5C104.471 375.849 103.379 383.202 103.85 398.5C80.6911 395.813 75.3192 391.706 85.8504 377.5C99.425 352.249 107.46 345.74 122.85 354C155.582 355.269 163.942 351.408 167.85 339.5C161.783 305.569 154.668 302.708 139.35 309C98.5719 328.94 89.7267 327.539 91.8504 309C95.7692 295.54 85.7943 291.377 58.8504 286.5C50.9696 266.268 54.4434 260.743 85.8504 269.5C106.58 269.921 115.185 268.639 122.85 262.5C114.704 239.318 120.298 238.931 139.35 249.5C132.174 256.969 139.924 259.392 161.85 262.5C190.841 261.738 193.085 258.168 186.85 249.5C147.793 246.201 147.912 238.63 167.85 220C124.774 213.367 113.014 213.252 115.85 220C97.1939 256.579 44.6494 243.127 58.8504 227C52.0514 208.731 50.5167 200.104 66.8504 201C97.0853 214.802 110.645 219.576 103.85 201C90.0885 176.566 97.3419 169.605 149.85 175C172.424 162.004 173.166 156.724 122.85 156C125.514 146.339 119.356 148.25 103.85 156C56.6657 133.608 54.9561 128.996 58.8504 123C59.9164 116.913 92.1152 113.129 139.35 106.5C176.346 91.4376 173.914 86.0371 149.85 79C101.231 85.1609 81.8969 86.2275 115.85 67.5C134.795 50.9908 132.861 47.0718 103.85 49.5C96.1515 37.4074 95.9581 9.9613 103.85 1C92.818 3.0109 87.4055 25.7782 85.8504 29.5C98.6333 55.7388 100.505 64.7545 85.8504 61.5C57.7661 82.3341 53.2258 78.2434 51.8504 61.5C69.5171 55.5576 68.3801 50.8441 58.8504 41.5C63.2105 52.6493 55.7383 56.3812 36.3504 61.5C9.84671 62.3956 10.4668 69.0233 25.8504 86.5C46.3624 96.2197 51.4963 93.5511 58.8504 86.5C95.4325 82.9878 92.9651 87.391 85.8504 96C94.8052 103.733 103.671 108.921 66.8504 106.5C43.1145 117.958 31.1154 123.111 36.3504 106.5C22.0272 92.908 17.1804 95.6749 10.3504 106.5C26.9902 113.985 27.0853 117.603 10.3504 123C-3.2374 128.857 -1.05986 131.254 36.3504 132.5C30.4654 135.993 35.5401 138.697 66.8504 145.5C84.1832 152.695 82.936 154.307 75.3504 156C41.7833 156.574 45.9188 159.55 58.8504 165.5C73.4887 171.17 73.5417 174.483 36.3504 181C19.656 165.269 15.0223 158.686 25.8504 156C-0.675594 155.728 -1.86508 158.235 10.3504 165.5C25.6459 175.771 25.287 179.08 10.3504 181C-3.88192 184.65 -4.18497 188.27 25.8504 201C26.7695 204.701 28.2835 206.471 36.3504 208C51.5551 203.838 49.2157 212.151 36.3504 235.5C44.5851 234.891 49.8648 232.707 51.8504 249.5L42.3504 269.5C41.6791 274.238 37.5665 276.608 25.8504 280.5C18.7957 285.995 19.6115 289.453 25.8504 296C7.20274 299.598 17.1445 302.817 42.3504 309C34.4212 317.381 39.059 319.807 51.8504 323C83.068 317.098 83.3836 323.418 75.3504 339.5C63.9093 341.235 59.286 343.075 66.8504 354C73.0572 367.422 74.4409 374.209 51.8504 377.5C45.1827 378.734 41.4756 379.218 36.3504 370.5C29.1208 359.007 31.1675 353.912 42.3504 346.5C20.3031 349.557 9.41325 352.245 10.3504 370.5C23.9402 374.825 23.4377 382.023 16.3504 398.5C0.551795 402.952 1.82939 404.624 42.3504 404.5C43.1991 407.574 73.5705 412.883 91.8504 412C69.2747 419.965 75.1126 430.029 102.5 439.5Z" fill="#55534C" stroke="#D8D2C3"/>
</svg>
