<svg width="42" height="72" viewBox="0 0 42 72" fill="none" xmlns="http://www.w3.org/2000/svg">
<g id="Vector 9">
<path fill-rule="evenodd" clip-rule="evenodd" d="M22.6843 0.595612L26.3605 13.3628C29.1563 16.1166 29.5331 17.7786 30.7378 20.8557L32.5106 23.0876C33.4327 25.5131 33.7058 27.0105 33.7293 29.9428L35.8344 32.1747C37.1214 34.3463 37.3907 36.1828 37.7179 39.6676L40.2662 41.7401C35.8344 44.7052 39.1474 48.7006 25.752 60.8708C25.752 60.8708 24.979 63.5101 25.752 64.9779C27.2542 67.83 30.7378 70.5956 30.7378 70.5956H13.3429C13.3429 70.5956 16.637 67.4744 17.7748 64.9779C18.8482 63.4038 17.7748 60.8708 17.7748 60.8708C-0.0124532 45.6641 6.36283 45.1847 1.26624 41.7401L4.03612 39.6676C4.62318 36.3823 4.98242 34.5739 6.36283 32.1747L8.24635 29.9428C8.5295 27.0075 9.00166 25.4911 10.5731 23.0876L12.235 20.8557C13.4702 17.4584 14.3534 15.7349 16.6668 13.3628L20.4466 0.595612H22.6843ZM23.4834 32.1747C22.834 31.5436 22.4807 31.0888 21.8851 29.9428C21.3658 30.8758 21.0578 31.3755 20.4466 32.1747C21.2997 33.0091 21.4974 34.3206 21.8851 36.5545C22.1818 34.3828 22.3191 33.1243 23.4834 32.1747ZM30.7378 29.9428C29.5278 30.167 28.8493 30.1595 27.6392 29.9428C28.9359 31.5587 29.0166 33.3932 29.2375 36.5545C29.2732 33.5204 29.5436 32.0243 30.7378 29.9428ZM12.235 29.9428C13.5512 30.4837 14.2244 30.4636 15.3336 29.9428C14.6218 31.8289 14.2867 33.1851 13.9492 35.663C13.9468 35.9962 13.8893 36.2472 13.8333 36.5545C13.8724 36.2412 13.9108 35.9448 13.9492 35.663C13.9548 34.864 13.6436 33.5929 12.235 29.9428ZM23.4834 20.8557C22.7949 19.7463 22.4395 18.7753 21.8851 16.0979C21.118 18.358 20.7549 19.4938 20.4466 20.8557H23.4834Z" fill="#FFBB25" fill-opacity="0.3"/>
<path d="M13.9492 35.663C14.2867 33.1851 14.6218 31.8289 15.3336 29.9428C14.2244 30.4636 13.5512 30.4837 12.235 29.9428C13.6436 33.5929 13.9548 34.864 13.9492 35.663ZM13.9492 35.663C13.9468 35.9962 13.8893 36.2472 13.8333 36.5545C13.8724 36.2412 13.9108 35.9448 13.9492 35.663ZM22.6843 0.595612L26.3605 13.3628C29.1563 16.1166 29.5331 17.7786 30.7378 20.8557L32.5106 23.0876C33.4327 25.5131 33.7058 27.0105 33.7293 29.9428L35.8344 32.1747C37.1214 34.3463 37.3907 36.1827 37.7179 39.6676L40.2662 41.7401C35.8344 44.7052 39.1474 48.7006 25.752 60.8708C25.752 60.8708 24.979 63.5101 25.752 64.9779C27.2542 67.83 30.7378 70.5956 30.7378 70.5956H13.3429C13.3429 70.5956 16.637 67.4744 17.7748 64.9779C18.8482 63.4038 17.7748 60.8708 17.7748 60.8708C-0.0124532 45.6641 6.36283 45.1847 1.26624 41.7401L4.03612 39.6676C4.62318 36.3823 4.98242 34.5739 6.36283 32.1747L8.24635 29.9428C8.5295 27.0075 9.00166 25.4911 10.5731 23.0876L12.235 20.8557C13.4702 17.4584 14.3534 15.7349 16.6668 13.3628L20.4466 0.595612H22.6843ZM21.8851 29.9428C22.4807 31.0888 22.834 31.5436 23.4834 32.1747C22.3191 33.1243 22.1818 34.3828 21.8851 36.5545C21.4974 34.3206 21.2997 33.0091 20.4466 32.1747C21.0578 31.3755 21.3658 30.8758 21.8851 29.9428ZM27.6392 29.9428C28.8493 30.1595 29.5278 30.167 30.7378 29.9428C29.5436 32.0243 29.2732 33.5204 29.2375 36.5545C29.0166 33.3932 28.9359 31.5587 27.6392 29.9428ZM21.8851 16.0979C22.4395 18.7753 22.7949 19.7463 23.4834 20.8557H20.4466C20.7549 19.4938 21.118 18.358 21.8851 16.0979Z" stroke="#FFBB25"/>
</g>
</svg>
