<svg width="36" height="47" viewBox="0 0 36 47" fill="none" xmlns="http://www.w3.org/2000/svg">
<g id="Vector 13" opacity="0.85">
<path d="M26.75 31.6912C24.8509 35.9202 23.7234 38.3547 19.25 45.1912C17.1985 39.4751 15.0784 36.4142 9.75 31.1912L18.25 31.6912C21.5392 31.756 23.4196 32.2421 26.75 31.6912Z" fill="#D8D2C3"/>
<path d="M34.75 17.1912C32.7193 22.0061 31.1154 24.8421 27.25 30.1912C26.6398 25.6903 25.8922 23.2775 23.75 19.1912C20.5615 22.4798 17.25 26.1912 18.25 30.1912C19.25 34.1912 13.5522 17.1102 12.75 17.1912H18.25C26.1445 18.9197 30.1603 19.3025 34.75 17.1912Z" fill="#D8D2C3"/>
<path d="M12.75 17.1912C9.02159 17.5157 4.75 17.1912 1.25 16.1912C2.90951 21.8877 5.75 26.1912 9.75 31.1912C9.62714 25.838 9.86814 21.2581 12.75 17.1912Z" fill="#D8D2C3"/>
<path d="M12.75 17.1912C9.02159 17.5157 4.75 17.1912 1.25 16.1912C2.90951 21.8877 5.75 26.1912 9.75 31.1912M12.75 17.1912C13.5522 17.1102 19.25 34.1912 18.25 30.1912C17.25 26.1912 20.5615 22.4798 23.75 19.1912C25.8922 23.2775 26.6398 25.6903 27.25 30.1912C31.1154 24.8421 32.7193 22.0061 34.75 17.1912C30.1603 19.3025 26.1445 18.9197 18.25 17.1912M12.75 17.1912C9.86814 21.2581 9.62714 25.838 9.75 31.1912M12.75 17.1912H18.25M9.75 31.1912C15.0784 36.4142 17.1985 39.4751 19.25 45.1912C23.7234 38.3547 24.8509 35.9202 26.75 31.6912C23.4196 32.2421 21.5392 31.756 18.25 31.6912L9.75 31.1912ZM18.25 17.1912C18.3739 11.0529 18.3195 7.11088 18.25 0.191223" stroke="#D8D2C3"/>
</g>
</svg>
